<svg xmlns="http://www.w3.org/2000/svg" xmlns:xlink="http://www.w3.org/1999/xlink" id="all-logos" viewBox="0 0 315.077 337.82"><defs><linearGradient id="linear-gradient" x1="141.101" x2="162" y1="121.894" y2="204.715" gradientUnits="userSpaceOnUse"><stop offset=".011" stop-color="#e67417"/><stop offset="1" stop-color="#e62f17"/></linearGradient><linearGradient id="New_Gradient_Swatch" x1="157.535" x2="157.535" y1="146.082" y2="244.762" gradientUnits="userSpaceOnUse"><stop offset="0" stop-color="#f2bb30"/><stop offset=".309" stop-color="#e67417"/><stop offset="1" stop-color="#e62f17"/></linearGradient><linearGradient id="linear-gradient-2" x1="195.595" x2="202.977" y1="189.54" y2="155.264" gradientUnits="userSpaceOnUse"><stop offset="0" stop-color="#fff"/><stop offset="1" stop-color="#fff" stop-opacity="0"/></linearGradient></defs><title>light-hex</title><path fill="#fff" d="M236.30763,126.46783a5.25933,5.25933,0,0,0-2.62735-4.55313l-73.51423-42.443a5.26427,5.26427,0,0,0-5.25526,0l-73.51422,42.443a5.25932,5.25932,0,0,0-2.62736,4.55313v84.886a5.25574,5.25574,0,0,0,2.62736,4.55092l73.51422,42.443a5.26421,5.26421,0,0,0,5.25526,0l73.51423-42.443a5.25575,5.25575,0,0,0,2.62735-4.55092Z"/><path fill="url(#linear-gradient)" d="M91.62543,210.41282a5.97283,5.97283,0,0,1-2.98641-5.17261v-43.096a42.65112,42.65112,0,0,1,2.15134-14.58677c2.5067-6.76608,7.46437-13.38529,17.29164-17.28905,18.82967-7.47985,37.44026,2.63328,47.95411,17.62525,8.82827,12.58845,13.98071,17.59354,25.0818,26.092,9.82978,7.52517,40.6576,21.059,45.32012-5.898v37.1526a5.97282,5.97282,0,0,1-2.98642,5.17261l-62.92668,36.33074a5.97283,5.97283,0,0,1-5.97282,0Z"/><path fill="url(#New_Gradient_Swatch)" d="M91.62543,210.41282l62.92668,36.33074a5.97283,5.97283,0,0,0,5.97282,0l62.92668-36.33074a5.97282,5.97282,0,0,0,2.98642-5.17261v-37.1526c0-27.51959-30.69537-29.79159-46.515-7.92007-12.53865,17.33535-18.09249,23.542-34.8771,29.64554-19.64344,7.14307-37.27489,3.26972-47.30206-6.53946A29.86883,29.86883,0,0,1,88.639,162.1442v43.096A5.97283,5.97283,0,0,0,91.62543,210.41282Z"/><path fill="url(#linear-gradient-2)" d="M226.438,168.08761c0-27.51956-30.69537-29.79161-46.51508-7.92007-2.17681,3.00961-4.14032,5.67712-5.99144,8.07353,2.1361,1.81448,4.48411,3.67581,7.18638,5.74454C190.94767,181.51077,221.77547,195.04462,226.438,168.08761Z" opacity=".3"/></svg>